<svg xmlns="http://www.w3.org/2000/svg" viewBox="0 0 638.67 673.98"><defs><style>.cls-1{fill:#333;}.cls-2{fill:#fff;}</style></defs><title>Asset 1</title><g id="Layer_2" data-name="Layer 2"><g id="Layer_1-2" data-name="Layer 1"><path class="cls-1" d="M94.85,187.62a11.4,11.4,0,0,0,2.44-.27L525.4,91.91a11.16,11.16,0,0,0-4.86-21.79L496.87,75.4c-13.23-12.21-48.7-30.09-139.6-18.05a7.25,7.25,0,0,0,.55-4.5,7.43,7.43,0,0,0-8.89-5.64L330,51.43C324.94,34.49,309.56-5.81,280.37.71s-26,49.51-23.41,67l-18.91,4.22a7.43,7.43,0,0,0-5.64,8.88,7.29,7.29,0,0,0,2.32,3.86c-74.52,23.64-103.27,49.84-114.33,67.38l202.83-42L116.45,159.42c-.13.3-.23.57-.35.86l-23.68,5.28a11.16,11.16,0,0,0,2.43,22.06ZM295.49,68.52c-7.94,1.77-15.4,3.58-22.66,5.41a7.26,7.26,0,0,0,0-2.08c-2.91-13.41-7.13-52.62,10.81-56.62s30.77,33.29,33.85,46.67a7.35,7.35,0,0,0,.8,1.91C310.92,65.23,303.41,66.75,295.49,68.52Z"/><path class="cls-1" d="M381,153.38a16.77,16.77,0,0,1,3.76-1.31,17.93,17.93,0,0,1,4.1-.46,16.05,16.05,0,0,1,3.73.44,18.24,18.24,0,0,1,3.8,1.21l4.93,2.17,1.71-5a22.37,22.37,0,0,1,8.88-11.22,21.09,21.09,0,0,1,6.77-2.84,21.83,21.83,0,0,1,7.51-.51,24.85,24.85,0,0,1,7.45,2,24.52,24.52,0,0,1,6.62,4.49c4.09,3.73,6.66,9,7.74,15,1-6-.67-12.51-4.26-17.91A27.13,27.13,0,0,0,427.5,128.6a31.56,31.56,0,0,0-5.24-.72,25,25,0,0,0-5,.22,30.09,30.09,0,0,0-9.89,3.31,28.76,28.76,0,0,0-11.4,11.38c-.42-.11-.8-.32-1.22-.42a25.27,25.27,0,0,0-6.32-.52,28.52,28.52,0,0,0-5.91.85,25.61,25.61,0,0,0-5.73,2.17A26.49,26.49,0,0,0,363,163.73a27.89,27.89,0,0,0-.29,6.06,29.39,29.39,0,0,0,1,5.6,25.82,25.82,0,0,0,5.72,9.84c5.29,5.33,12.85,8.06,19.64,6.86-6.73-1.17-12.52-4.82-15.68-10.05a20.08,20.08,0,0,1-3.08-8.21,21.94,21.94,0,0,1-.22-4.42,22.25,22.25,0,0,1,.73-4A19,19,0,0,1,381,153.38Z"/><path class="cls-1" d="M519.33,124.92a27.41,27.41,0,0,0-9.41-1.63,19.9,19.9,0,0,0-2.45.13l-2.1.26a28.33,28.33,0,0,0-4.7,1.19A26.92,26.92,0,0,0,486.59,136a25.14,25.14,0,0,0-3.77,16.55,25.9,25.9,0,0,1,6.68-14.34,23.75,23.75,0,0,1,12.86-7.26,23.1,23.1,0,0,1,3.44-.41h2a13.75,13.75,0,0,1,1.71.15,22.65,22.65,0,0,1,6.72,1.91,22.23,22.23,0,0,1,9.82,9.26l3.89,6.73,4.38-6.73a21,21,0,0,1,13.83-9.14c.7-.12,1.38-.22,2-.26a17,17,0,0,1,2.22,0,20.52,20.52,0,0,1,4.15.55,19.94,19.94,0,0,1,7.47,3.57,20.32,20.32,0,0,1,5.56,6.15,22.11,22.11,0,0,1,1.72,3.81,25.06,25.06,0,0,1,.86,3.85,24,24,0,0,1,.06,4.45,20.17,20.17,0,0,1-.77,4.13,21,21,0,0,1-4.09,7.5l-4,4.82,5.33,2.72a22.37,22.37,0,0,1,9.86,9.56,23.67,23.67,0,0,1,2.17,6.67c.11.56.15,1.37.23,2l0,1.7a20.53,20.53,0,0,1-.33,3.67,23.74,23.74,0,0,1-7.14,13.23,26,26,0,0,1-14.57,6.87,25.22,25.22,0,0,0,16.84-4,27,27,0,0,0,11-14.59,26.24,26.24,0,0,0,1.06-4.66l.25-2.52c0-.73.07-1.34,0-2.18a28.43,28.43,0,0,0-2-9.65,29.93,29.93,0,0,0-8.23-11.45,29,29,0,0,0,4.92-12.7,30.39,30.39,0,0,0,.14-6.19,33.73,33.73,0,0,0-1.24-6.57,33.19,33.19,0,0,0-2.54-5.94,30.2,30.2,0,0,0-20.15-15,31.48,31.48,0,0,0-6.41-.72,23.41,23.41,0,0,0-3.09.13,28.15,28.15,0,0,0-3.32.48,29.81,29.81,0,0,0-16.19,9.43A30.09,30.09,0,0,0,519.33,124.92Z"/><path class="cls-1" d="M243.63,187.42a23.37,23.37,0,0,0,.6,10.68,22.94,22.94,0,0,0,2.56,6,25.15,25.15,0,0,0,2.31,3.13c.16.19.28.36.46.57a21.64,21.64,0,0,0,3.2,3,26.32,26.32,0,0,0,8.15,4.08,23.46,23.46,0,0,0,8.46.94,26.7,26.7,0,0,0,5-.75c.1.17.15.36.25.53a25,25,0,0,0,2.27,2.84c.43.46.83.92,1.36,1.41s1.09,1,1.84,1.53a20.52,20.52,0,0,0,2.27,1.53l.07.05a22.73,22.73,0,0,0,4.91,2.19,23,23,0,0,0,18.86-2.52c.43-.27.92-.44,1.33-.73s.68-.57,1-.85a24.32,24.32,0,0,0,2.73-2.61l.15-.15a26.47,26.47,0,0,0,2.78-4.09,22.26,22.26,0,0,0,2-6.93c0-.25.08-.51.1-.77.07-.63.24-1.26.26-1.89s-.14-1-.18-1.56c-.44-5.94-3.38-11.45-7.91-14.41A20.34,20.34,0,0,1,312,201a17.1,17.1,0,0,1-.4,3,16.49,16.49,0,0,1-1.11,3.19,16,16,0,0,1-2,3.37,14.62,14.62,0,0,1-5.25,4.52,15.6,15.6,0,0,1-12.85.94,13.16,13.16,0,0,1-2.9-1.4,14.39,14.39,0,0,1-2.64-2.12A13.77,13.77,0,0,1,283,210.2a14.91,14.91,0,0,1-1.49-2.86l0-.09-1.95-4.94-4.69,2.32c-.28.14-.61.14-.91.26a1.09,1.09,0,0,1-.17.05,18.54,18.54,0,0,1-10.52,1.12,17.2,17.2,0,0,1-5.6-2.21,18.48,18.48,0,0,1-4.74-4,21.25,21.25,0,0,1-2.29-3.54,19.51,19.51,0,0,1-2.35-8.5,23,23,0,0,1,4-13.7A21,21,0,0,0,243.63,187.42Z"/><path class="cls-1" d="M448.53,478.5A28.48,28.48,0,0,0,459,470c37.61-50.74,53.62-126.09,60.44-181.1,23.51-12.89,50.77-22.55,59.52-21.05a14.88,14.88,0,0,0,29.1-6.1,26.6,26.6,0,0,0-14.89-20.37c-17.86-8.59-47.9,1.87-70.25,12.32.73-9.84,1.13-18.08,1.35-24.08h9.22a11.17,11.17,0,0,0,0-22.33H355.36a30.32,30.32,0,0,1,4.32,14.23,25.56,25.56,0,0,1-39.8,21.25,23.38,23.38,0,0,1,.26,2.52,25.48,25.48,0,0,1-44.84,16.67A25.53,25.53,0,0,1,229,247.06a25.26,25.26,0,0,1,3.55-12.79l-.22-.41a25.39,25.39,0,0,1-38-26.61H94.86a11.17,11.17,0,0,0,0,22.33h9.23c.21,6,.61,14.23,1.33,24.07C83.1,243.19,53.1,232.73,35.19,241.34A26.6,26.6,0,0,0,20.3,261.71a14.81,14.81,0,0,0,12.34,17,15,15,0,0,0,16.75-10.89c8.8-1.46,36,8.17,59.51,21.05,6.79,54.82,22.7,129.85,60.08,180.59a27.86,27.86,0,0,0,11.69,9.05H0v17.6H638.67V478.5ZM177.16,416c-4.41-9.94-9.27-21.69-13.64-34.6-2.3-6.42-4.37-13.15-6.4-20-2.21-6.82-3.76-13.94-5.68-21-1.77-7.07-3.15-14.23-4.72-21.24-1.23-7.08-2.45-14.05-3.63-20.79-1-6.77-1.72-13.36-2.53-19.59s-1.1-12.18-1.61-17.64c-.35-5.48-1-10.5-1-15s-.24-8.36-.33-11.57c-.05-2-.1-3.6-.14-5h14.57c-.05,1.45-.11,3.1-.18,5.17-.12,3.12-.26,6.9-.41,11.24s0,9.25,0,14.6c.15,5.35-.05,11.17.45,17.29s.68,12.6,1.25,19.28c.72,6.68,1.47,13.57,2.23,20.57,1.1,7,2,14.09,3.29,21.14,1.44,7,2.52,14.14,4.26,21,1.56,6.89,3.17,13.67,5,20.14,3.49,13,7.55,25,11.29,35.11a273.41,273.41,0,0,0,14.53,33A273.12,273.12,0,0,1,177.16,416Z"/><rect class="cls-1" y="656.38" width="638.67" height="17.59"/><path class="cls-1" d="M31,600.46Q35.16,605,44,605q8.43,0,12.22-3.22a17.38,17.38,0,0,0,5.34-7.87,9,9,0,0,1,1.68-3.22,4.31,4.31,0,0,1,3.09-.85H84.72a3.12,3.12,0,0,1,3.09,3.09,29.43,29.43,0,0,1-6,17.34,40.08,40.08,0,0,1-15.79,12.57,51.84,51.84,0,0,1-22,4.63q-13.05,0-22.74-5.12a38.22,38.22,0,0,1-15-13.76,39.85,39.85,0,0,1-5.9-19.17q-.29-6.74-.28-11.09,0-5.19.28-13.9A38.7,38.7,0,0,1,6.1,545.22a38.08,38.08,0,0,1,15.09-13.76Q31,526.33,44,526.33a51.69,51.69,0,0,1,22,4.64,40.06,40.06,0,0,1,15.79,12.56,29.45,29.45,0,0,1,6,17.34A3.11,3.11,0,0,1,84.72,564H66.33a4.31,4.31,0,0,1-3.09-.85,8.91,8.91,0,0,1-1.68-3.22A17.43,17.43,0,0,0,56.22,552Q52.44,548.8,44,548.8q-8.84,0-13,4.49a19,19,0,0,0-4.71,11.79Q26,569.87,26,576.87q0,6.75.28,11.8A18.92,18.92,0,0,0,31,600.46Z"/><path class="cls-1" d="M165.87,531.39a37.21,37.21,0,0,1,14.95,13.68,40.56,40.56,0,0,1,5.83,19.31q.27,3.93.28,12.64,0,8.55-.28,12.35a40.53,40.53,0,0,1-5.83,19.31,37.14,37.14,0,0,1-14.95,13.68q-9.69,5.07-23,5.06t-23-5.06a37.24,37.24,0,0,1-15-13.68A40.63,40.63,0,0,1,99,589.37q-.29-7.57-.28-12.35T99,564.38a40.66,40.66,0,0,1,5.82-19.31,37.31,37.31,0,0,1,15-13.68q9.68-5.05,23-5.06T165.87,531.39Zm-10.32,21.83q-4.41-4.43-12.7-4.42t-12.71,4.42q-4.42,4.42-5.13,11.86c-.27,3.09-.42,7-.42,11.66s.15,8.56.42,11.93q.7,7.44,5.13,11.86T142.85,605q8.28,0,12.7-4.42t5.12-11.86c.29-3.37.42-7.35.42-11.93s-.13-8.57-.42-11.66Q160,557.64,155.55,553.22Z"/><path class="cls-1" d="M266.67,531.39a37.15,37.15,0,0,1,14.95,13.68,40.45,40.45,0,0,1,5.83,19.31q.27,3.93.28,12.64,0,8.55-.28,12.35a40.42,40.42,0,0,1-5.83,19.31,37.08,37.08,0,0,1-14.95,13.68q-9.69,5.07-23,5.06t-23-5.06a37.14,37.14,0,0,1-15-13.68,40.53,40.53,0,0,1-5.83-19.31q-.28-7.57-.28-12.35t.28-12.64a40.56,40.56,0,0,1,5.83-19.31,37.21,37.21,0,0,1,15-13.68q9.67-5.05,23-5.06T266.67,531.39Zm-10.32,21.83q-4.41-4.43-12.7-4.42t-12.71,4.42q-4.42,4.42-5.13,11.86c-.27,3.09-.42,7-.42,11.66s.15,8.56.42,11.93q.7,7.44,5.13,11.86T243.65,605q8.28,0,12.7-4.42t5.12-11.86q.43-5.05.43-11.93,0-7-.43-11.66Q260.78,557.64,256.35,553.22Z"/><path class="cls-1" d="M387.56,622.93a3,3,0,0,1-.91,2.18,3,3,0,0,1-2.18.91H362.15a5.82,5.82,0,0,1-3.1-.78,11.4,11.4,0,0,1-2.66-2.45l-26.54-33.42v32.86a3.65,3.65,0,0,1-1.11,2.66,3.69,3.69,0,0,1-2.68,1.13H307.67a3.86,3.86,0,0,1-3.79-3.79v-90.7a3.84,3.84,0,0,1,3.79-3.79h18.39a3.81,3.81,0,0,1,3.79,3.79v29.62l24.71-30.33a13.16,13.16,0,0,1,2.25-2.24,5.6,5.6,0,0,1,3.37-.84h21.91a3.08,3.08,0,0,1,2.66,4.63l-34.67,42.4,37.06,46.61A2.57,2.57,0,0,1,387.56,622.93Z"/><path class="cls-1" d="M399.49,624.89a3.62,3.62,0,0,1-1.12-2.66v-90.7a3.82,3.82,0,0,1,3.79-3.79h18.39a3.82,3.82,0,0,1,3.79,3.79v90.7a3.84,3.84,0,0,1-3.79,3.79H402.16A3.64,3.64,0,0,1,399.49,624.89Z"/><path class="cls-1" d="M504.23,625a6,6,0,0,1-2.11-2.17l-32.15-48v47.46a3.62,3.62,0,0,1-1.12,2.66,3.67,3.67,0,0,1-2.67,1.13h-18.4a3.84,3.84,0,0,1-3.78-3.79v-90.7a3.82,3.82,0,0,1,3.78-3.79h14.61a6.34,6.34,0,0,1,3.65,1,6.23,6.23,0,0,1,2.11,2.18l32.14,48V531.53a3.84,3.84,0,0,1,3.79-3.79h18.4a3.81,3.81,0,0,1,3.78,3.79v90.7a3.61,3.61,0,0,1-1.11,2.66,3.67,3.67,0,0,1-2.67,1.13h-14.6A6.33,6.33,0,0,1,504.23,625Z"/><path class="cls-1" d="M568.1,575.9q0,8.7.43,12.77a18.79,18.79,0,0,0,4.77,11.72q4.22,4.56,12.91,4.56c5.34,0,9.63-1.23,12.85-3.72s4.84-6.38,4.84-11.72H592.12a3.84,3.84,0,0,1-3.8-3.79V570.84a3.84,3.84,0,0,1,3.8-3.79h34a3.82,3.82,0,0,1,3.79,3.79v18a36.45,36.45,0,0,1-5.75,20.43,37.7,37.7,0,0,1-15.66,13.48,51.31,51.31,0,0,1-22.26,4.7q-13.05,0-22.74-5.12a38.22,38.22,0,0,1-15-13.76,39.85,39.85,0,0,1-5.9-19.17c-.18-4.49-.28-8.19-.28-11.09q0-5.19.28-13.9a38.7,38.7,0,0,1,5.76-19.16,38.08,38.08,0,0,1,15.09-13.76q9.76-5.13,22.81-5.13A50.34,50.34,0,0,1,608.33,531a41,41,0,0,1,15,11.65q5.39,7,5.82,13.62a2.47,2.47,0,0,1-.84,2.17,3.23,3.23,0,0,1-2.25.92H607.42a4.24,4.24,0,0,1-2.88-.92,26.83,26.83,0,0,1-2.74-2.88,19.64,19.64,0,0,0-6-4.91q-3.45-1.82-9.63-1.82-15.86,0-17.68,16.28A94.89,94.89,0,0,0,568.1,575.9Z"/><path class="cls-2" d="M201.9,412.61V305.32h16.34v43.4h14.63v-43.4h16.34V412.61H232.87V362.74H218.24v49.87Z"/><path class="cls-2" d="M305.78,406.08q-5.61,7.76-17.95,7.75t-18.11-7.78Q264,398.28,264,382.62V333.54Q264,304,288,304q12.43,0,17.89,7.49t5.46,22v49.08Q311.39,398.34,305.78,406.08ZM281.85,396c1,2.48,2.92,3.71,5.89,3.71s4.91-1.26,5.85-3.81S295,389,295,382.8v-50q0-7.62-1.43-11.13c-1-2.33-2.82-3.5-5.61-3.5a6,6,0,0,0-5.85,3.5q-1.68,3.51-1.68,11.07V382.8Q280.42,392.25,281.85,396Z"/><path class="cls-2" d="M326.21,412.61V305.32h20.3l15.23,78.39,14.33-78.39h20.42V412.61H381.92v-40l.61-36.7-14.45,76.2h-13L340,335.92l.61,36.7v40Z"/><path class="cls-2" d="M412.65,412.61V305.32h36V319.4H429v31.21h18.66v13.78H429v34.14h20.36v14.08Z"/></g></g></svg>